<?xml version="1.0" standalone="no"?>
<!DOCTYPE svg PUBLIC "-//W3C//DTD SVG 20010904//EN"
 "http://www.w3.org/TR/2001/REC-SVG-20010904/DTD/svg10.dtd">
<svg version="1.0" xmlns="http://www.w3.org/2000/svg"
 width="1024.000000pt" height="1024.000000pt" viewBox="0 0 1024.000000 1024.000000"
 preserveAspectRatio="xMidYMid meet">
<metadata>
Created by potrace 1.11, written by Peter Selinger 2001-2013
</metadata>
<g transform="translate(0.000000,1024.000000) scale(0.100000,-0.100000)"
fill="#000000" stroke="none">
<path d="M5035 7941 c-79 -8 -105 -18 -84 -32 13 -8 369 -10 369 -3 0 2 -17
11 -37 20 -45 18 -151 25 -248 15z"/>
<path d="M4788 7879 c-37 -4 -72 -10 -78 -14 -21 -13 2 -25 49 -25 57 0 119
-26 102 -43 -7 -7 -45 -13 -85 -15 -65 -4 -77 -1 -95 17 -12 12 -33 21 -48 22
-91 3 -188 -14 -178 -31 4 -6 31 -10 61 -10 31 0 69 -7 86 -16 l32 -16 -25
-14 c-34 -19 -169 -19 -169 0 0 18 -31 26 -105 26 -64 0 -135 -15 -135 -29 0
-5 30 -11 68 -14 37 -3 76 -7 87 -10 11 -3 23 -6 28 -6 18 -2 4 -20 -24 -30
-70 -24 -198 -6 -171 24 4 5 1 5 -5 1 -7 -4 -18 -4 -24 0 -21 12 -161 4 -175
-11 -12 -12 -11 -15 7 -20 12 -4 37 -7 58 -7 20 0 41 -3 46 -6 6 -4 16 -7 23
-8 8 -2 16 -5 20 -8 14 -14 -19 -26 -85 -31 -65 -5 -74 -3 -92 16 -18 20 -30
22 -103 20 -97 -2 -150 -12 -156 -29 -4 -12 37 -17 103 -13 36 2 85 -14 85
-28 0 -16 -55 -41 -89 -41 -39 0 -84 17 -76 29 16 26 -228 27 -259 2 -27 -23
-7 -31 67 -30 88 2 142 -9 125 -27 -3 -3 -43 -12 -88 -20 -45 -7 -96 -21 -113
-29 -29 -13 -81 -26 -347 -85 -47 -10 -105 -25 -129 -34 -24 -9 -59 -16 -77
-16 -18 0 -68 -11 -111 -25 -43 -14 -92 -25 -110 -25 -20 0 -47 -12 -77 -35
-26 -19 -50 -35 -54 -35 -9 0 -89 -82 -120 -123 -11 -16 -28 -53 -37 -83 -8
-30 -19 -54 -24 -54 -5 0 -14 17 -19 38 -8 28 -11 -7 -10 -158 2 -224 9 -275
40 -302 19 -16 23 -30 24 -91 0 -77 20 -147 41 -147 18 0 25 -39 21 -109 -1
-34 0 -61 5 -61 4 0 7 -14 7 -30 0 -20 6 -33 17 -37 28 -10 31 -20 32 -127 1
-90 3 -103 22 -118 12 -10 25 -15 30 -12 5 3 8 -20 7 -53 -3 -87 4 -168 16
-178 6 -6 18 -10 26 -10 12 0 15 -21 17 -107 2 -79 7 -117 19 -140 l18 -33 6
25 c10 43 17 8 19 -100 1 -77 6 -111 18 -130 15 -22 17 -23 23 -5 12 33 17 3
19 -105 1 -58 6 -107 11 -108 6 -2 7 -8 4 -14 -5 -7 1 -9 17 -5 l24 6 1 -97
c1 -112 8 -152 29 -152 8 0 15 5 15 12 0 6 2 9 5 6 3 -3 8 -57 10 -119 4 -113
15 -169 35 -169 5 0 10 8 10 17 0 9 2 14 5 11 3 -2 7 -51 9 -109 4 -102 19
-169 37 -169 5 0 10 10 10 23 1 12 5 -14 10 -58 4 -44 10 -96 13 -115 2 -19 5
-51 5 -71 1 -21 10 -48 23 -64 12 -16 23 -35 24 -44 1 -9 5 -52 9 -96 5 -55
13 -89 27 -109 13 -18 24 -57 30 -105 5 -46 15 -82 25 -91 9 -8 13 -9 9 -2 -4
6 -3 12 1 12 5 0 7 18 5 40 -3 30 0 41 12 46 24 9 31 -2 31 -47 0 -29 -6 -44
-19 -51 -16 -9 -17 -19 -11 -87 3 -42 9 -92 12 -111 5 -38 29 -90 41 -90 4 0
8 -24 10 -53 4 -92 12 -126 32 -132 20 -6 30 -33 30 -81 0 -27 25 -64 42 -64
3 0 3 20 0 45 -4 37 -2 45 11 45 22 0 32 -60 17 -104 -15 -46 -6 -60 36 -53
28 5 37 1 62 -29 22 -25 37 -34 60 -34 17 0 43 -5 59 -11 46 -18 177 -12 246
10 34 11 89 25 122 31 33 6 88 20 121 30 34 10 98 24 143 31 63 10 82 16 87
31 7 22 27 33 78 42 21 4 62 21 91 37 28 16 61 29 73 29 11 0 58 12 102 26 45
14 109 30 143 35 34 5 85 18 112 28 28 10 82 24 120 30 39 6 93 19 120 30 28
10 75 22 105 26 30 3 89 17 130 30 41 13 100 27 130 31 30 3 76 15 102 25 26
10 77 23 115 29 37 7 100 23 140 36 39 13 83 24 97 24 14 0 59 11 100 24 40
14 96 28 122 31 54 8 157 61 192 98 12 13 39 50 59 83 35 56 37 64 41 167 4
95 1 117 -22 190 -14 45 -30 109 -35 143 -5 33 -17 78 -25 99 -9 21 -21 70
-27 109 -6 39 -20 94 -30 121 -11 28 -24 79 -30 115 -5 36 -21 100 -34 143
-14 43 -25 91 -25 108 0 16 -11 60 -24 98 -13 38 -29 100 -35 138 -6 37 -19
91 -30 118 -10 28 -22 77 -26 110 -4 33 -16 81 -26 107 -10 25 -25 84 -33 130
-8 45 -21 99 -30 120 -9 20 -21 69 -27 110 -6 40 -19 93 -29 118 -10 25 -23
81 -30 125 -7 44 -19 93 -27 109 -8 16 -21 67 -29 114 -7 46 -22 107 -33 136
-10 28 -22 76 -26 106 -4 30 -17 84 -30 120 -12 36 -25 92 -30 125 -4 32 -16
81 -26 107 -10 27 -24 81 -30 121 -6 39 -19 92 -29 117 -10 25 -23 78 -29 117
-6 40 -20 94 -30 120 -13 35 -20 82 -22 173 l-4 125 127 -3 c70 -1 129 2 132
7 11 18 -53 33 -157 39 l-109 5 -13 31 c-7 17 -22 67 -34 111 -12 44 -38 114
-59 155 -29 60 -42 76 -62 78 -37 6 -50 21 -50 58 0 23 -6 37 -19 44 -12 6
-92 10 -198 9 -170 -1 -175 -2 -113 -14 62 -11 64 -12 37 -23 -31 -13 -163
-19 -174 -8 -19 18 -8 32 25 34 20 2 39 5 41 8 7 7 -123 2 -211 -7z m497 -190
c90 -55 122 -122 175 -366 11 -51 25 -105 31 -120 6 -16 21 -75 34 -133 25
-112 44 -187 77 -315 11 -44 25 -102 31 -130 5 -27 18 -81 30 -120 11 -38 28
-106 37 -150 25 -112 57 -245 85 -345 13 -47 26 -103 30 -125 3 -22 15 -67 25
-100 10 -33 24 -88 30 -122 6 -34 19 -86 29 -115 10 -30 24 -87 31 -128 7 -41
18 -90 26 -108 7 -19 21 -73 30 -120 9 -48 22 -101 29 -119 8 -18 21 -71 30
-119 9 -47 22 -103 30 -123 8 -20 19 -65 25 -101 6 -36 22 -100 36 -143 13
-43 24 -89 24 -102 0 -13 11 -59 24 -102 13 -43 27 -98 31 -123 4 -25 18 -79
30 -120 13 -41 28 -106 35 -144 6 -38 16 -78 21 -88 6 -11 21 -69 35 -131 14
-62 30 -133 36 -159 32 -131 -91 -270 -267 -303 -38 -7 -104 -22 -145 -33 -41
-12 -102 -28 -135 -35 -154 -37 -205 -49 -275 -69 -41 -11 -105 -27 -142 -34
-36 -7 -93 -22 -125 -33 -32 -10 -83 -22 -113 -26 -30 -4 -76 -16 -103 -26
-26 -10 -80 -24 -120 -30 -39 -6 -87 -17 -105 -25 -18 -7 -80 -22 -137 -33
-57 -11 -112 -24 -122 -30 -10 -5 -57 -17 -103 -25 -47 -9 -112 -25 -145 -36
-33 -10 -88 -24 -122 -30 -35 -6 -81 -17 -103 -25 -22 -8 -68 -19 -103 -25
-34 -6 -97 -22 -140 -36 -94 -29 -201 -32 -253 -8 -68 32 -117 93 -146 179
-15 44 -32 108 -38 142 -6 34 -19 86 -29 115 -10 29 -21 76 -25 105 -3 28 -15
77 -26 108 -11 31 -24 84 -30 118 -6 34 -20 89 -30 122 -11 33 -24 92 -31 130
-6 39 -20 90 -29 115 -10 25 -23 77 -29 115 -6 39 -19 95 -30 126 -10 30 -22
79 -26 109 -4 30 -16 78 -26 108 -10 29 -23 81 -29 115 -6 34 -20 89 -30 122
-11 33 -26 92 -34 130 -7 39 -23 106 -34 150 -34 132 -52 204 -77 315 -13 58
-29 119 -35 135 -7 17 -18 62 -25 100 -7 39 -22 104 -33 145 -12 41 -28 102
-35 135 -34 141 -49 205 -72 290 -13 50 -29 119 -35 155 -7 36 -18 80 -26 98
-7 19 -21 72 -30 118 -8 47 -23 108 -33 137 -10 29 -21 75 -25 102 -4 28 -18
85 -32 128 -16 54 -24 102 -24 154 0 71 3 80 38 135 46 72 116 113 229 133 43
7 94 20 113 28 19 8 67 20 105 26 39 7 97 20 130 31 33 10 88 24 122 30 34 6
87 19 118 30 31 11 80 22 108 26 29 3 88 16 132 29 82 25 186 50 360 90 133
30 256 61 335 85 36 10 94 24 128 30 35 6 76 16 90 22 15 5 74 21 132 34 141
31 258 60 360 89 49 13 114 24 155 24 60 1 75 -3 120 -30z"/>
<path d="M4484 6971 c-76 -39 -174 -130 -232 -214 -29 -42 -52 -80 -52 -87 0
-6 -7 -24 -15 -39 -23 -45 -55 -176 -55 -225 0 -27 -6 -48 -16 -57 -13 -11
-19 -8 -40 17 -47 55 -53 69 -79 172 -23 91 -25 115 -19 198 6 84 5 94 -10 94
-70 0 -184 -138 -221 -269 -27 -92 -28 -161 -5 -250 24 -97 24 -144 -3 -149
-28 -5 -81 58 -106 126 -17 47 -33 71 -74 107 -28 25 -56 45 -61 45 -5 0 -17
6 -25 14 -21 18 -98 29 -106 15 -4 -5 0 -18 9 -27 8 -10 26 -40 38 -67 21 -46
23 -63 22 -200 -1 -82 -5 -195 -10 -250 -10 -112 -3 -106 -99 -85 -105 23
-221 28 -253 11 -25 -13 -30 -51 -7 -51 8 0 23 -9 32 -20 10 -11 22 -20 28
-20 12 0 68 -71 98 -124 15 -27 17 -54 16 -201 -3 -227 11 -274 124 -396 34
-38 34 -53 1 -92 -43 -51 -81 -138 -89 -204 -10 -87 22 -201 73 -257 39 -44
105 -96 122 -96 6 0 21 -7 34 -15 13 -9 28 -15 32 -13 5 1 31 -4 58 -12 47
-15 49 -17 86 -96 21 -44 46 -86 55 -94 9 -7 23 -26 30 -41 15 -28 133 -150
179 -184 14 -11 32 -25 39 -30 31 -27 173 -105 190 -105 6 0 18 -6 26 -13 9
-7 36 -19 61 -26 25 -7 57 -18 72 -23 15 -6 28 -9 30 -8 2 1 17 -4 33 -11 37
-14 70 -18 213 -25 99 -4 125 -2 209 21 151 40 239 90 370 210 108 99 201 225
267 360 76 154 99 254 100 430 l2 139 63 69 c66 73 84 106 108 199 13 53 13
62 -8 138 -15 57 -32 94 -56 123 -41 50 -104 106 -119 107 -19 0 -37 47 -30
77 49 199 42 350 -25 558 -25 81 -39 106 -92 169 -60 71 -124 115 -147 101
-15 -9 -12 -55 4 -61 34 -13 64 -147 49 -219 -7 -33 -15 -43 -46 -59 l-38 -18
-28 26 c-31 29 -29 22 -51 311 -11 150 -56 317 -104 390 -19 28 -37 60 -40 72
-11 35 -34 49 -52 32 -12 -13 -13 -35 -5 -146 17 -212 -10 -423 -53 -423 -26
0 -46 42 -46 95 0 56 -32 201 -54 243 -8 16 -31 37 -51 47 -44 24 -55 13 -48
-49 7 -55 -31 -131 -83 -171 -35 -26 -38 -27 -63 -13 -51 30 -61 70 -51 193
12 138 26 206 58 271 25 51 25 85 0 83 -7 0 -36 -13 -64 -28z m-48 -993 c15
-40 37 -89 49 -108 12 -19 27 -50 34 -67 16 -40 94 -113 120 -113 11 0 23 -4
26 -10 3 -5 16 -10 29 -10 12 0 31 -7 42 -15 10 -8 29 -15 41 -15 12 0 25 -4
28 -10 3 -5 19 -10 35 -10 39 0 42 24 9 85 -23 43 -48 126 -73 236 -5 24 -3
26 22 21 15 -2 34 -10 42 -16 8 -6 32 -20 52 -30 66 -34 141 -115 180 -196 64
-133 78 -179 89 -289 13 -143 29 -187 90 -250 66 -67 83 -76 104 -55 10 10 14
26 11 39 -8 30 12 95 29 95 24 0 65 -59 65 -94 0 -60 -36 -98 -120 -126 -51
-17 -76 -31 -78 -43 -2 -9 6 -54 17 -100 31 -126 19 -283 -30 -407 -59 -150
-132 -256 -245 -358 -72 -64 -167 -127 -223 -147 -45 -16 -247 -19 -257 -4 -3
5 -23 9 -44 9 -21 0 -42 5 -45 10 -3 6 -19 10 -35 10 -16 0 -32 5 -35 10 -3 6
-13 10 -22 10 -8 0 -29 6 -46 14 -18 8 -39 17 -47 20 -38 17 -107 63 -172 117
-64 53 -119 115 -163 186 -29 47 -84 192 -85 224 0 34 -23 38 -95 18 l-70 -20
-46 22 c-44 20 -58 37 -73 82 -8 24 19 87 37 87 22 0 56 -43 73 -93 18 -53 31
-65 48 -46 27 31 38 90 31 162 -6 55 -20 98 -62 192 -79 175 -81 239 -15 439
15 44 32 81 39 83 6 3 24 -15 40 -39 54 -83 162 -153 220 -142 28 5 33 10 33
34 0 15 -7 33 -14 40 -8 6 -22 33 -31 60 -20 60 -12 145 21 238 13 36 24 67
24 68 0 2 6 4 14 4 8 0 20 -17 27 -37 29 -91 82 -179 143 -235 33 -32 68 -58
78 -58 24 0 31 34 17 78 -15 47 -13 172 5 232 7 25 37 89 65 143 28 53 51 105
51 115 0 16 8 32 16 32 1 0 15 -33 30 -72z"/>
<path d="M5033 5199 c-12 -12 -106 -62 -243 -130 -154 -77 -187 -121 -112
-151 108 -44 125 -46 218 -17 55 17 78 31 115 69 59 60 95 148 82 200 -9 37
-38 51 -60 29z"/>
<path d="M3885 4897 c-29 -22 -13 -73 37 -116 101 -87 170 -102 293 -61 52 17
73 31 110 72 44 49 64 92 50 106 -6 6 -274 8 -386 2 -25 -1 -54 0 -65 4 -11 3
-28 0 -39 -7z"/>
<path d="M3334 7520 c-87 -5 -131 -20 -119 -41 3 -4 58 -7 123 -6 111 2 117 3
120 23 4 27 -10 30 -124 24z"/>
<path d="M3090 7460 c-67 -4 -85 -8 -85 -20 0 -11 19 -17 76 -24 65 -7 79 -6
102 9 15 9 27 22 27 28 0 6 -3 7 -7 4 -3 -4 -11 -3 -17 1 -6 4 -49 5 -96 2z"/>
<path d="M2760 7385 c-17 -20 3 -27 90 -29 68 -1 99 11 86 33 -11 18 -161 14
-176 -4z"/>
<path d="M2600 7341 c-36 -3 -74 -11 -85 -18 -19 -11 -19 -12 6 -21 23 -9 113
-17 149 -14 8 1 21 11 28 23 8 12 9 18 4 15 -6 -3 -12 1 -16 9 -3 8 -9 14 -13
13 -4 0 -37 -4 -73 -7z"/>
<path d="M6030 7340 l-25 -7 25 -10 c36 -15 373 -36 428 -28 l47 8 -30 13
c-16 7 -57 15 -90 18 -108 10 -329 14 -355 6z"/>
<path d="M6648 7283 c-21 -5 -23 -19 -5 -26 30 -11 358 -29 413 -22 57 7 58 7
32 21 -14 7 -57 16 -95 19 -112 8 -327 13 -345 8z"/>
<path d="M2431 7266 c-10 -12 -6 -46 5 -46 14 0 54 34 54 46 0 18 -44 18 -59
0z"/>
<path d="M7310 7222 c-107 -7 -82 -27 46 -36 43 -3 125 -8 181 -12 89 -5 104
-9 123 -30 13 -12 35 -26 51 -29 16 -4 43 -25 64 -51 41 -49 55 -55 55 -21 0
30 -9 40 -45 53 -17 6 -29 16 -27 24 5 21 -27 40 -65 40 -27 0 -35 5 -43 25
-5 14 -11 26 -12 26 -10 4 -291 13 -328 11z"/>
<path d="M2380 7210 c-18 -4 -26 -14 -28 -33 -4 -35 21 -36 44 -2 20 31 15 43
-16 35z"/>
<path d="M2303 7118 c-17 -21 -22 -132 -12 -231 6 -51 11 -97 11 -104 1 -6 7
-9 15 -6 10 4 13 41 13 167 0 161 -6 200 -27 174z"/>
<path d="M7862 7001 c-10 -6 -12 -22 -7 -65 7 -53 23 -76 27 -38 1 9 5 -57 8
-148 l6 -165 0 199 c-1 151 -4 200 -14 204 -6 2 -10 8 -6 13 6 11 3 11 -14 0z"/>
<path d="M7806 5873 c-15 -65 -12 -101 5 -70 11 18 24 137 16 137 -3 0 -12
-30 -21 -67z"/>
<path d="M7752 5312 c-7 -24 -12 -64 -10 -90 l3 -47 13 43 c7 24 12 64 10 90
l-3 47 -13 -43z"/>
<path d="M7697 4783 c-9 -15 -7 -198 2 -185 9 15 16 192 7 192 -3 0 -7 -3 -9
-7z"/>
<path d="M7636 4102 c-4 -57 -6 -106 -3 -108 9 -10 18 78 15 146 -3 62 -3 61
-12 -38z"/>
<path d="M7577 3603 c-11 -11 -8 -163 3 -163 6 0 10 35 10 85 0 85 -1 91 -13
78z"/>
<path d="M7520 3020 c-8 -68 -8 -88 -2 -125 l6 -40 6 48 c3 26 3 68 -1 95 -4
29 -7 38 -9 22z"/>
<path d="M7457 2603 c-11 -10 -8 -63 3 -63 6 0 10 16 10 35 0 36 -2 40 -13 28z"/>
<path d="M4460 2586 c0 -2 11 -6 25 -8 14 -3 25 -1 25 3 0 5 -11 9 -25 9 -14
0 -25 -2 -25 -4z"/>
<path d="M4910 2530 c8 -5 53 -9 100 -9 103 1 71 15 -40 18 -53 1 -71 -2 -60
-9z"/>
<path d="M7397 2483 c-4 -3 -7 -11 -7 -17 0 -6 5 -5 12 2 6 6 9 14 7 17 -3 3
-9 2 -12 -2z"/>
<path d="M5505 2472 c6 -6 42 -12 82 -14 93 -4 79 11 -18 19 -51 4 -71 2 -64
-5z"/>
<path d="M7333 2423 c-18 -6 -16 -23 1 -23 17 0 30 16 19 23 -5 2 -14 2 -20 0z"/>
<path d="M6100 2410 c35 -11 161 -11 135 0 -11 5 -51 8 -90 8 -50 0 -63 -2
-45 -8z"/>
<path d="M6698 2363 c7 -3 16 -2 19 1 4 3 -2 6 -13 5 -11 0 -14 -3 -6 -6z"/>
<path d="M7220 2361 c0 -15 49 -19 61 -5 9 11 5 14 -25 14 -20 0 -36 -4 -36
-9z"/>
<path d="M6963 2333 c53 -2 141 -2 195 0 53 1 9 3 -98 3 -107 0 -151 -2 -97
-3z"/>
</g>
</svg>
